# xmcd
#
# Track frame offsets:
#	150
#	18664
#	37256
#	57311
#	76976
#	95125
#	112202
#	133315
#	153650
#	174823
#	196081
#
# Disc length: 2619 seconds
#
# Revision: 0
# Processed by: cddbd v1.4PL0 Copyright (c) Steve Scherf et al.
# Submitted via: EasyCDDAExtractor 4.6.9.1
#
DISCID=9b0a390b
DTITLE=Various Artist - MUFUKUH Sound
DYEAR=2002
DGENRE=R&B
TTITLE0=The Roots feat. Amel Larrieux - Glitches
TTITLE1=Usher - U Got It Bad
TTITLE2=Tony Braxton - Your Making Me High
TTITLE3=Tamia - I'm So Into You
TTITLE4=Mase - Tell me what u want
TTITLE5=Lauryn Hill - Cant Take My Eyes Off You
TTITLE6=Deborah Cox - We Can't Be Friends
TTITLE7=Az Yet - Secrets
TTITLE8=Deborah Cox - Nobody's Supposed To Be Here
TTITLE9=
TTITLE10=0
EXTD=
EXTT0=
EXTT1=
EXTT2=
EXTT3=
EXTT4=
EXTT5=
EXTT6=
EXTT7=
EXTT8=
EXTT9=
EXTT10=
PLAYORDER=
